<svg xmlns="http://www.w3.org/2000/svg" viewBox="0 0 1009.55 219.87"><defs><style>.cls-1{fill:#fff;}.cls-2,.cls-3{fill:none;stroke-miterlimit:10;}.cls-2{stroke:#000;stroke-width:5px;}.cls-3{stroke:#7f7f7f;}</style></defs><g id="Layer_2" data-name="Layer 2"><path class="cls-1" d="M49.27,118.27a40.21,40.21,0,0,0,9.9,8.34,25.07,25.07,0,0,0,12.76,3,28.23,28.23,0,0,0,7.76-1.07,15.82,15.82,0,0,0,6.16-3.17,6.72,6.72,0,0,0,2.4-5.3q0-4.47-4.86-6.34a64.72,64.72,0,0,0-13.6-3.12Q58.9,109,52.53,104.71T46.15,92.14a14.49,14.49,0,0,1,3.44-9.68,21.82,21.82,0,0,1,9.23-6.25A36.26,36.26,0,0,1,71.66,74a36.56,36.56,0,0,1,15.08,2.85A24.45,24.45,0,0,1,96.82,85l-6.6,7a24.49,24.49,0,0,0-7.85-6.69,22.46,22.46,0,0,0-11-2.59A22.84,22.84,0,0,0,60.65,85c-2.89,1.51-4.33,3.64-4.33,6.37a6.61,6.61,0,0,0,2.1,5.13,14.84,14.84,0,0,0,5.88,3,62.47,62.47,0,0,0,8.88,1.82q4.91.72,9.41,1.83a34.79,34.79,0,0,1,8.07,3,16.1,16.1,0,0,1,5.67,4.86,12.33,12.33,0,0,1,2.09,7.31,17.22,17.22,0,0,1-3.3,10.53,21.15,21.15,0,0,1-9.36,6.91,38.11,38.11,0,0,1-14.28,2.45,42.68,42.68,0,0,1-16-2.85A31.28,31.28,0,0,1,43,126.12Z"/><path class="cls-1" d="M177.28,74.92,149.89,112v25.33h-9.63V112.47L111.09,74.92h12.76l21.4,28.63,20.43-28.63Z"/><path class="cls-1" d="M205.19,74.92l24.45,33.27,24.61-33.27h9.28v62.44H253.9V111.22q0-5.79.22-11T254.88,90l-22.39,29.43H226.6L204.39,90c.36,3.44.61,6.88.76,10.3s.22,7.06.22,10.92v26.14h-9.63V74.92Z"/><path class="cls-1" d="M323.12,74.92a19.23,19.23,0,0,1,9.76,2.54A20.25,20.25,0,0,1,340,84.33a18,18,0,0,1,2.72,9.77,18.59,18.59,0,0,1-2.85,10.08,20.68,20.68,0,0,1-7.59,7.18A21,21,0,0,1,322,114H300.28v23.37h-9.63V74.92Zm-1.79,29.79a11.45,11.45,0,0,0,5.62-1.42,11.09,11.09,0,0,0,4.11-3.84,9.85,9.85,0,0,0,1.51-5.35,8.71,8.71,0,0,0-1.51-5A11,11,0,0,0,327,85.54a12,12,0,0,0-5.62-1.34H300.28v20.51Z"/><path class="cls-1" d="M375,74.92v26.94H414.1V74.92h9.64v62.44H414.1V111.14H375v26.22H365.4V74.92Z"/><path class="cls-1" d="M723.53,74.92h9.64v62.44H723.8L678.85,88.75q.52,5.7,1.07,11.33c.35,3.74.53,7.52.53,11.32v26h-9.63V74.92H680l45,49.86q-.63-4.45-.94-9.5c-.21-3.36-.35-6.74-.44-10.17s-.14-6.64-.14-9.67Z"/><path class="cls-1" d="M817.82,74.92,790.43,112v25.33H780.8V112.47L751.63,74.92h12.76l21.4,28.63,20.43-28.63Z"/><path class="cls-1" d="M885.88,74.92v7L845.2,128h41.66v9.37H830.39v-7.05l40.77-46H832.71V74.92Z"/><path class="cls-1" d="M907.91,137.36V74.92h47.28V84.2H917.54v16.5h32.74V110H917.54v18.1h37.65v9.28Z"/><circle class="cls-2" cx="547.63" cy="110.22" r="95.23"/><circle cx="547.63" cy="110.22" r="95.23"/><circle class="cls-1" cx="547.63" cy="110.22" r="27.19"/><circle class="cls-3" cx="547.63" cy="110.22" r="86.19"/><circle class="cls-3" cx="547.63" cy="110.22" r="68.77"/><circle class="cls-3" cx="547.63" cy="110.22" r="50.06"/><circle cx="547.63" cy="110.22" r="4.07"/></g></svg>