<svg xmlns="http://www.w3.org/2000/svg" viewBox="0 0 1281 260.13"><defs><style>.cls-1,.cls-3{fill:none;stroke-miterlimit:10;}.cls-1{stroke:#000;stroke-width:5px;}.cls-2{fill:#fff;}.cls-3{stroke:#7f7f7f;}</style></defs><g id="Layer_2" data-name="Layer 2"><path d="M42,138.12a40,40,0,0,0,9.9,8.34,25.16,25.16,0,0,0,12.75,3,27.81,27.81,0,0,0,7.76-1.08,15.81,15.81,0,0,0,6.16-3.16A6.76,6.76,0,0,0,81,139.9c0-3-1.63-5.08-4.87-6.33a64.72,64.72,0,0,0-13.6-3.12q-10.87-1.6-17.26-5.89T38.89,112a14.52,14.52,0,0,1,3.44-9.68,22,22,0,0,1,9.23-6.24,36.1,36.1,0,0,1,12.85-2.19,36.51,36.51,0,0,1,15.07,2.86,24.37,24.37,0,0,1,10.08,8.12l-6.6,7a24.64,24.64,0,0,0-7.85-6.69,22.54,22.54,0,0,0-11-2.58,23,23,0,0,0-10.75,2.27c-2.89,1.52-4.33,3.64-4.33,6.38a6.61,6.61,0,0,0,2.1,5.13,14.75,14.75,0,0,0,5.89,3,61.92,61.92,0,0,0,8.87,1.83q4.9.72,9.41,1.83a34.17,34.17,0,0,1,8.07,3,16.31,16.31,0,0,1,5.67,4.86,12.27,12.27,0,0,1,2.1,7.32,17.2,17.2,0,0,1-3.31,10.52,21.17,21.17,0,0,1-9.36,6.92,38.06,38.06,0,0,1-14.27,2.45,42.53,42.53,0,0,1-16-2.86A31.25,31.25,0,0,1,35.77,146Z"/><path d="M208,94.77l-27.39,37.1v25.34H171V132.32L141.83,94.77h12.76L176,123.4l20.43-28.63Z"/><path d="M272.6,94.77,297,128l24.62-33.27h9.27v62.44H321.3V131.07q0-5.79.22-11t.76-10.26l-22.39,29.44H294l-22.21-29.44c.36,3.45.61,6.89.76,10.3s.23,7.07.23,10.93v26.14h-9.64V94.77Z"/><path d="M427.18,94.77A19.19,19.19,0,0,1,437,97.31a20.14,20.14,0,0,1,7.13,6.87,17.89,17.89,0,0,1,2.72,9.76A18.59,18.59,0,0,1,444,124a20.57,20.57,0,0,1-7.58,7.18A20.89,20.89,0,0,1,426,133.84H404.34v23.37h-9.63V94.77Zm-1.78,29.79a11.48,11.48,0,0,0,5.62-1.43,11.11,11.11,0,0,0,4.1-3.83,9.86,9.86,0,0,0,1.51-5.36,8.68,8.68,0,0,0-1.51-5,10.89,10.89,0,0,0-4.1-3.57A12.1,12.1,0,0,0,425.4,104H404.34v20.52Z"/><path d="M515.76,94.77V121.7h39.07V94.77h9.63v62.44h-9.63V131H515.76v26.23h-9.64V94.77Z"/><path d="M900.92,94.77h9.63v62.44h-9.36l-45-48.62q.54,5.72,1.07,11.33c.36,3.75.54,7.52.54,11.33v26H848.2V94.77h9.19l45.05,49.86q-.63-4.45-.94-9.5T901.05,125q-.13-5.13-.13-9.68Z"/><path d="M1031.86,94.77l-27.38,37.1v25.34h-9.63V132.32L965.68,94.77h12.75l21.41,28.63,20.43-28.63Z"/><path d="M1136.58,94.77v7l-40.67,46.12h41.65v9.37H1081.1v-7.05l40.77-46h-38.45V94.77Z"/><path d="M1195.28,157.21V94.77h47.27V104h-37.64v16.51h32.74v9.27h-32.74v18.11h37.64v9.28Z"/><circle class="cls-1" cx="706.42" cy="130.06" r="95.23"/><circle cx="706.42" cy="130.06" r="95.23"/><circle class="cls-2" cx="706.42" cy="130.06" r="27.19"/><circle class="cls-3" cx="706.42" cy="130.06" r="86.19"/><circle class="cls-3" cx="706.42" cy="130.06" r="68.77"/><circle class="cls-3" cx="706.42" cy="130.06" r="50.06"/><circle cx="706.42" cy="130.06" r="4.07"/></g></svg>